<svg width="7" height="9" viewBox="0 0 7 9" fill="none" xmlns="http://www.w3.org/2000/svg">
<path d="M2.64604 6.744C2.58204 6.744 2.52604 6.72 2.47804 6.672C2.43004 6.624 2.40604 6.568 2.40604 6.504V6.12C2.44604 5.744 2.56204 5.416 2.75404 5.136C2.95404 4.848 3.23404 4.52 3.59404 4.152C3.85804 3.896 4.05804 3.676 4.19404 3.492C4.33004 3.308 4.41004 3.12 4.43404 2.928C4.46604 2.6 4.35804 2.34 4.11004 2.148C3.86204 1.948 3.56204 1.848 3.21004 1.848C2.42604 1.848 1.95404 2.236 1.79404 3.012C1.73804 3.196 1.62204 3.288 1.44604 3.288H0.426039C0.346039 3.288 0.282039 3.264 0.234039 3.216C0.186039 3.16 0.162039 3.088 0.162039 3C0.178039 2.56 0.310039 2.148 0.558039 1.764C0.806039 1.38 1.16604 1.072 1.63804 0.84C2.11004 0.6 2.66204 0.48 3.29404 0.48C3.95804 0.48 4.50204 0.588 4.92604 0.804C5.35804 1.012 5.67004 1.28 5.86204 1.608C6.06204 1.936 6.16204 2.276 6.16204 2.628C6.16204 3.036 6.07004 3.388 5.88604 3.684C5.71004 3.972 5.44204 4.308 5.08204 4.692C4.82604 4.972 4.62604 5.212 4.48204 5.412C4.34604 5.604 4.25404 5.812 4.20604 6.036C4.17404 6.236 4.15404 6.372 4.14604 6.444C4.08204 6.644 3.97404 6.744 3.82204 6.744H2.64604ZM2.61004 9C2.53004 9 2.46204 8.972 2.40604 8.916C2.35004 8.86 2.32204 8.792 2.32204 8.712V7.668C2.32204 7.588 2.35004 7.52 2.40604 7.464C2.46204 7.4 2.53004 7.368 2.61004 7.368H3.77404C3.86204 7.368 3.93404 7.396 3.99004 7.452C4.04604 7.508 4.07404 7.58 4.07404 7.668V8.712C4.07404 8.792 4.04604 8.86 3.99004 8.916C3.93404 8.972 3.86204 9 3.77404 9H2.61004Z" fill="white"/>
</svg>
