<svg width="16" height="16" viewBox="0 0 16 16" fill="none" xmlns="http://www.w3.org/2000/svg">
<path d="M16 8C16 12.4183 12.4183 16 8 16C3.58172 16 0 12.4183 0 8C0 3.58172 3.58172 0 8 0C12.4183 0 16 3.58172 16 8Z" fill="black"/>
<path d="M8.66992 9.64102H7.17578C7.17969 9.28945 7.20703 8.98672 7.25781 8.73281C7.3125 8.475 7.4043 8.24258 7.5332 8.03555C7.66602 7.82852 7.8418 7.62344 8.06055 7.42031C8.24414 7.25625 8.4043 7.1 8.54102 6.95156C8.67773 6.80312 8.78516 6.65078 8.86328 6.49453C8.94141 6.33437 8.98047 6.15664 8.98047 5.96133C8.98047 5.73477 8.94531 5.54727 8.875 5.39883C8.80859 5.24648 8.70703 5.13125 8.57031 5.05312C8.4375 4.975 8.26953 4.93594 8.06641 4.93594C7.89844 4.93594 7.74219 4.97305 7.59766 5.04727C7.45312 5.11758 7.33398 5.22695 7.24023 5.37539C7.15039 5.52383 7.10352 5.71914 7.09961 5.96133H5.40039C5.41211 5.42617 5.53516 4.98477 5.76953 4.63711C6.00781 4.28555 6.32617 4.02578 6.72461 3.85781C7.12305 3.68594 7.57031 3.6 8.06641 3.6C8.61328 3.6 9.08203 3.68984 9.47266 3.86953C9.86328 4.04531 10.1621 4.30508 10.3691 4.64883C10.5762 4.98867 10.6797 5.40273 10.6797 5.89102C10.6797 6.23086 10.6133 6.53359 10.4805 6.79922C10.3477 7.06094 10.1738 7.30508 9.95898 7.53164C9.74414 7.7582 9.50781 7.99258 9.25 8.23477C9.02734 8.43398 8.875 8.64297 8.79297 8.86172C8.71484 9.08047 8.67383 9.34023 8.66992 9.64102ZM7 11.4516C7 11.2016 7.08594 10.9945 7.25781 10.8305C7.42969 10.6625 7.66016 10.5785 7.94922 10.5785C8.23438 10.5785 8.46289 10.6625 8.63477 10.8305C8.81055 10.9945 8.89844 11.2016 8.89844 11.4516C8.89844 11.6938 8.81055 11.8988 8.63477 12.0668C8.46289 12.2348 8.23438 12.3188 7.94922 12.3188C7.66016 12.3188 7.42969 12.2348 7.25781 12.0668C7.08594 11.8988 7 11.6938 7 11.4516Z" fill="white"/>
</svg>
