<svg width="12" height="12" viewBox="0 0 12 12" fill="none" xmlns="http://www.w3.org/2000/svg">
<path fill-rule="evenodd" clip-rule="evenodd" d="M4.16795 1.2068C4.41392 0.486109 5.10448 0 5.8823 0C7.11574 0 7.9867 1.18019 7.59665 2.32302L7.0243 4H10.4634C11.4626 4 12.1957 4.91708 11.9534 5.8638L11.9505 5.87508L10.4143 10.8762C10.239 11.5373 9.62794 12 8.92756 12H0V4H3.21464L4.16795 1.2068ZM3.07168 5H1.02389V11H3.07168V5ZM4.09558 11H8.92756C9.16248 11 9.36725 10.8439 9.42422 10.6213L9.42711 10.61L10.9624 5.61185C11.036 5.29964 10.7931 5 10.4634 5H5.60372L6.6253 2.0068C6.79434 1.51149 6.41687 1 5.8823 1C5.54519 1 5.24591 1.21068 5.1393 1.52302L4.09558 4.58114V11Z" fill="#333333"/>
</svg>
