<svg width="60" height="60" viewBox="0 0 60 60" fill="none" xmlns="http://www.w3.org/2000/svg">
<path fill-rule="evenodd" clip-rule="evenodd" d="M8.29419 4.18594C6.02532 4.18594 4.18594 6.02529 4.18594 8.29436V51.7041C4.18594 53.9732 6.02532 55.8125 8.29419 55.8125H51.7027C53.9716 55.8125 55.811 53.9732 55.811 51.7041V8.29436C55.811 6.02529 53.9716 4.18594 51.7027 4.18594H8.29419ZM0 8.29436C0 3.71357 3.71338 0 8.29419 0H51.7027C56.2835 0 59.9969 3.71357 59.9969 8.29436V51.7041C59.9969 56.2849 56.2835 59.9985 51.7027 59.9985H8.29419C3.71338 59.9985 0 56.2849 0 51.7041V8.29436Z" fill="#CCCCCC"/>
<path fill-rule="evenodd" clip-rule="evenodd" d="M19.1492 16.589C17.7365 16.589 16.5912 17.7342 16.5912 19.147C16.5912 20.5599 17.7365 21.7051 19.1492 21.7051C20.5618 21.7051 21.7071 20.5599 21.7071 19.147C21.7071 17.7342 20.5618 16.589 19.1492 16.589ZM12.4053 19.147C12.4053 15.4225 15.4246 12.403 19.1492 12.403C22.8738 12.403 25.893 15.4225 25.893 19.147C25.893 22.8716 22.8738 25.891 19.1492 25.891C15.4246 25.891 12.4053 22.8716 12.4053 19.147Z" fill="#CCCCCC"/>
<path fill-rule="evenodd" clip-rule="evenodd" d="M42.4028 21.7064C42.9579 21.7064 43.4903 21.9269 43.8828 22.3195L59.3858 37.8229C60.2032 38.6403 60.2031 39.9655 59.3858 40.7829C58.5684 41.6002 57.2432 41.6002 56.4259 40.7828L42.4028 26.7593L9.77607 59.387C8.95873 60.2044 7.63353 60.2044 6.81616 59.387C5.9988 58.5697 5.99878 57.2445 6.81612 56.4271L40.9228 22.3195C41.3153 21.9269 41.8477 21.7064 42.4028 21.7064Z" fill="#CCCCCC"/>
</svg>
