<?xml version="1.0" encoding="UTF-8" ?>
<svg
	xmlns="http://www.w3.org/2000/svg"
	width="16"
	height="16"
	viewBox="0 0 16 16"
>
	<g fill="none" fill-rule="evenodd">
		<path
			fill="#fff"
			d="M917.266 98c4.013 0 7.266 3.251 7.266 7.262 0 1.718-.597 3.297-1.596 4.541l2.805 2.818c.308.31.308.812 0 1.122-.307.308-.805.31-1.114.003l-.003-.003-2.806-2.82c-1.246 1.001-2.829 1.6-4.552 1.6-4.013 0-7.266-3.25-7.266-7.261 0-4.01 3.253-7.262 7.266-7.262zm0 1.614c-3.121 0-5.651 2.528-5.651 5.648 0 3.12 2.53 5.648 5.651 5.648s5.651-2.529 5.651-5.648c0-3.12-2.53-5.648-5.65-5.648zm.007 2.75c.321 0 .582.26.582.582v1.745h1.745c.322 0 .582.26.582.582 0 .321-.26.582-.582.582l-1.745-.001v1.746c0 .321-.26.582-.582.582-.321 0-.582-.26-.582-.582v-1.746h-1.745c-.322 0-.582-.26-.582-.581 0-.322.26-.582.582-.582h1.745v-1.745c0-.322.26-.582.582-.582z"
			transform="translate(-910 -98)"
		/>
	</g>
</svg>
