<svg width="24" height="24" viewBox="0 0 24 24" fill="none" xmlns="http://www.w3.org/2000/svg">
<circle cx="11.5385" cy="11.5385" r="10.5385" fill="white" stroke="#333333" stroke-width="2"/>
<path d="M8.35398 17C8.25015 17 8.16519 16.9667 8.09911 16.9C8.03304 16.8333 8 16.7476 8 16.6429V7.35714C8 7.25238 8.03304 7.16667 8.09911 7.1C8.16519 7.03333 8.25015 7 8.35398 7H12.2195C12.9841 7 13.6448 7.11905 14.2018 7.35714C14.7681 7.59524 15.2071 7.95714 15.5186 8.44286C15.8395 8.91905 16 9.51429 16 10.2286C16 10.9524 15.8395 11.5524 15.5186 12.0286C15.2071 12.4952 14.7681 12.8429 14.2018 13.0714C13.6448 13.3 12.9841 13.4143 12.2195 13.4143H10.3221V16.6429C10.3221 16.7476 10.2891 16.8333 10.223 16.9C10.1569 16.9667 10.072 17 9.96814 17H8.35398ZM10.2796 11.6429H12.1487C12.6301 11.6429 13.0029 11.5238 13.2673 11.2857C13.541 11.0476 13.6779 10.6905 13.6779 10.2143C13.6779 9.79524 13.5552 9.45238 13.3097 9.18571C13.0737 8.91905 12.6867 8.78571 12.1487 8.78571H10.2796V11.6429Z" fill="#333333"/>
</svg>
