<svg width="40" height="40" viewBox="0 0 40 40" fill="none" xmlns="http://www.w3.org/2000/svg">
<path fill-rule="evenodd" clip-rule="evenodd" d="M5.52945 2.79062C4.01688 2.79062 2.79062 4.01686 2.79062 5.52957V34.4694C2.79062 35.9821 4.01688 37.2083 5.52945 37.2083H34.4684C35.981 37.2083 37.2073 35.9821 37.2073 34.4694V5.52957C37.2073 4.01686 35.981 2.79062 34.4684 2.79062H5.52945ZM0 5.52957C0 2.47571 2.47558 0 5.52945 0H34.4684C37.5223 0 39.9979 2.47571 39.9979 5.52957V34.4694C39.9979 37.5232 37.5223 39.999 34.4684 39.999H5.52945C2.47558 39.999 0 37.5232 0 34.4694V5.52957Z" fill="#CCCCCC"/>
<path fill-rule="evenodd" clip-rule="evenodd" d="M12.7662 11.0593C11.8244 11.0593 11.0609 11.8228 11.0609 12.7647C11.0609 13.7066 11.8244 14.4701 12.7662 14.4701C13.708 14.4701 14.4715 13.7066 14.4715 12.7647C14.4715 11.8228 13.708 11.0593 12.7662 11.0593ZM8.27026 12.7647C8.27026 10.2816 10.2831 8.26868 12.7662 8.26868C15.2492 8.26868 17.2621 10.2816 17.2621 12.7647C17.2621 15.2477 15.2492 17.2607 12.7662 17.2607C10.2831 17.2607 8.27026 15.2477 8.27026 12.7647Z" fill="#CCCCCC"/>
<path fill-rule="evenodd" clip-rule="evenodd" d="M28.2676 14.4709C28.6377 14.4709 28.9926 14.6179 29.2543 14.8796L39.5896 25.2152C40.1345 25.7601 40.1345 26.6436 39.5896 27.1885C39.0447 27.7334 38.1612 27.7334 37.6163 27.1885L28.2676 17.8395L6.51648 39.5912C5.97159 40.1362 5.08812 40.1362 4.54321 39.5913C3.9983 39.0464 3.99829 38.1629 4.54318 37.618L27.281 14.8796C27.5426 14.6179 27.8975 14.4709 28.2676 14.4709Z" fill="#CCCCCC"/>
</svg>
