<svg width="17" height="17" viewBox="0 0 17 17" fill="none" xmlns="http://www.w3.org/2000/svg">
<path d="M7.6922 10.9997L7.33864 11.3533L7.69218 11.7068L8.04574 11.3533L7.6922 10.9997ZM15.5 8.5C15.5 12.366 12.366 15.5 8.5 15.5V16.5C12.9183 16.5 16.5 12.9183 16.5 8.5H15.5ZM8.5 15.5C4.63401 15.5 1.5 12.366 1.5 8.5H0.5C0.5 12.9183 4.08172 16.5 8.5 16.5V15.5ZM1.5 8.5C1.5 4.63401 4.63401 1.5 8.5 1.5V0.5C4.08172 0.5 0.5 4.08172 0.5 8.5H1.5ZM8.5 1.5C12.366 1.5 15.5 4.63401 15.5 8.5H16.5C16.5 4.08172 12.9183 0.5 8.5 0.5V1.5ZM4.64644 8.66101L7.33864 11.3533L8.04575 10.6462L5.35356 7.95391L4.64644 8.66101ZM8.04574 11.3533L12.3534 7.04582L11.6463 6.3387L7.33865 10.6462L8.04574 11.3533Z" fill="#B8B8B8"/>
</svg>
