<svg width="18" height="18" viewBox="0 0 18 18" fill="none" xmlns="http://www.w3.org/2000/svg">
<path fill-rule="evenodd" clip-rule="evenodd" d="M12.4073 13.4678C11.0971 14.5427 9.42087 15.1879 7.59393 15.1879C3.39992 15.1879 0 11.7879 0 7.59393C0 3.39992 3.39992 0 7.59393 0C11.7879 0 15.1879 3.39992 15.1879 7.59393C15.1879 9.4208 14.5428 11.097 13.4679 12.4072L17.9965 16.9358L16.9359 17.9964L12.4073 13.4678ZM13.6693 7.59396C13.6693 10.9492 10.9494 13.6691 7.5942 13.6691C4.23899 13.6691 1.51905 10.9492 1.51905 7.59396C1.51905 4.23874 4.23899 1.51881 7.5942 1.51881C10.9494 1.51881 13.6693 4.23874 13.6693 7.59396Z" fill="black"/>
</svg>
